<svg width="326" height="593" viewBox="0 0 326 593" fill="none" xmlns="http://www.w3.org/2000/svg">
<path d="M-104.954 83.9509C-104.954 130.457 -86.9693 208.876 -154.884 293.648C-221.22 376.45 -129.96 114.254 -38.3057 98.0257C68.8318 79.0556 -115.808 518.301 -125.329 428.909C-130.655 378.898 24.3172 116.399 67.9087 159.991C123.363 215.445 -22.0477 532.191 -56.0015 526.981C-115.901 517.792 98.3306 153.446 159.117 184.826C231.602 222.244 112.127 471.949 56.6889 485.343C12.338 496.058 177.754 254.066 288.445 309.449" stroke="black" stroke-width="8" stroke-linecap="round"/>
<path d="M295.941 289.989C297.022 288.054 299.98 289.052 299.667 291.246L299.091 295.288C298.904 296.605 300.029 297.734 301.346 297.552L317.061 295.372C319.181 295.078 320.219 297.871 318.421 299.033L306.744 306.583C305.389 307.459 305.576 309.496 307.067 310.111L315.016 313.393C316.844 314.148 316.585 316.813 314.647 317.203L309.444 318.248C308.269 318.484 307.564 319.694 307.938 320.833L309.414 325.327C309.978 327.044 308.156 328.569 306.565 327.711L300.221 324.291C298.593 323.414 296.749 325.026 297.4 326.757L300.89 336.022C301.647 338.032 299.135 339.66 297.61 338.147L287.746 328.364C287.11 327.733 286.132 327.602 285.353 328.043L274.234 334.334C272.381 335.382 270.391 333.195 271.609 331.449L278.157 322.063C278.756 321.204 278.592 320.028 277.78 319.367L266.362 310.073C264.903 308.885 265.743 306.522 267.625 306.522H276.421C277.415 306.522 278.258 305.791 278.4 304.807L279.779 295.245C280.078 293.176 282.949 292.894 283.645 294.864L285.879 301.188C286.452 302.811 288.671 303 289.511 301.498L295.941 289.989Z" fill="#CD4631"/>
</svg>
