<svg width="275" height="275" viewBox="0 0 275 275" fill="none" xmlns="http://www.w3.org/2000/svg">
<path d="M56.8514 209.033C50.4036 200.294 43.9869 212.046 46.9278 218.84C48.1014 221.552 48.2148 224.818 51.3324 225.733C52.2972 226.016 53.1583 227.177 54.2245 227.177C56.0225 227.177 56.6911 226.741 58.2842 226.196" stroke="#4D4D4D" stroke-width="3" stroke-linecap="round" stroke-linejoin="round"/>
<path d="M59.2402 227.667C60.5508 234.563 61.0596 242.112 64.3878 248.263C66.9063 252.917 72.0645 257.417 77.3627 258.097C80.8072 258.539 83.6393 259.507 87.2067 258.67C89.9456 258.027 92.4538 256.889 95.1137 256.109C97.3155 255.463 99.2227 253.886 100.792 252.186C102.797 250.013 103.613 247.175 105.196 244.939C106.268 243.426 106.523 240.035 106.523 238.183C106.523 235.705 107.001 233.47 107.001 230.991C107.001 225.638 105.09 220.46 105.09 215.162C105.09 213.613 104.223 212.131 104.135 210.504C104.02 208.374 103.531 205.553 103.153 203.421C102.805 201.453 102.225 199.409 102.225 197.373C102.225 194.018 100.953 197.374 99.3591 196.283" stroke="#4D4D4D" stroke-width="3" stroke-linecap="round" stroke-linejoin="round"/>
<path d="M52.5533 202.168C51.3845 197.818 52.2187 193.245 50.4041 189.146C49.3026 186.658 50.5803 182.879 51.0144 180.428C51.3272 178.661 51.1205 176.746 51.1205 174.952C51.1205 173.399 52.3028 172.524 52.5268 171.029C52.7429 169.587 51.9363 168.124 50.6429 167.46C49.398 166.821 49.9686 167.23 50.8552 166.371C51.3528 165.888 53.24 165.038 53.0044 164.191C52.8431 163.611 52.1016 163.87 54.0392 163.428C55.6472 163.061 57.6731 161.467 59.2398 161.467C60.9008 161.467 61.9207 161.115 63.6444 160.486C65.5154 159.803 66.3827 161.617 67.6244 161.385C69.093 161.111 70.1838 159.069 71.8698 159.069C72.0517 159.069 72.8083 159.963 73.6741 159.996C74.9954 160.046 76.5385 160.938 77.8664 160.377C78.7507 160.003 78.0041 161.689 79.0604 161.93C81.414 162.467 83.7025 160.061 85.7469 159.287C87.712 158.544 86.8781 159.35 86.3571 160.486C86.0293 161.201 90.3089 161.204 91.1332 161.358C93.3491 161.772 92.287 161.634 91.027 162.693C89.3431 164.107 91.7943 164.409 92.9375 164.409C95.2359 164.409 94.648 164.242 94.5826 165.989C94.513 167.846 94.9049 167.682 96.0154 168.822C96.7608 169.588 96.8286 170.807 97.687 171.492C98.5088 172.149 100.314 170.782 99.7831 172.555C99.2613 174.296 98.0389 175.763 97.5543 177.54C97.2392 178.696 99.7407 178.532 100.314 179.12C101.835 180.682 100.198 181.251 99.8627 182.798C99.6046 183.991 100.512 184.369 100.765 185.277C101.06 186.339 99.3636 186.825 99.9423 187.947C100.572 189.169 100.795 188.923 99.8362 190.399" stroke="#4D4D4D" stroke-width="3" stroke-linecap="round" stroke-linejoin="round"/>
<path d="M47.7771 167.352C46.7133 167.991 43.008 169.916 45.8666 171.384C47.0619 171.997 45.5971 171.174 45.8932 173.454C46.2431 176.149 47.0518 175.832 45.1502 178.385C43.6191 180.441 45.0756 181.338 44.0624 183.534C43.4867 184.782 43.0528 186.456 43.001 187.838C42.9203 189.992 47.6822 190.897 46.53 192.606C46.0302 193.347 44.5773 194.388 44.6461 195.412C44.7563 197.052 47.4034 198.698 48.4404 199.716C48.9499 200.217 50.42 201.542 49.5813 202.168C48.6296 202.879 49.583 202.809 50.059 203.639C50.452 204.325 51.3856 205.601 51.3856 205.601C51.3856 205.601 50.9319 202.082 50.3508 200.425C49.8331 198.948 48.97 197.907 47.9893 196.774C47.6032 196.328 48.7246 195.825 48.9976 195.494C50.9253 193.155 51.545 186.912 48.2547 185.223C47.6611 184.918 48.4473 186.712 48.9711 187.13C49.9521 187.913 50.1019 183.707 50.059 183.316C49.7984 180.942 48.9733 179.368 47.3525 177.704C46.2449 176.567 46.6131 176.794 47.8036 176.641C49.3177 176.447 51.1085 174.834 49.4487 173.508C48.2856 172.58 49.9526 176.941 50.6427 177.649" stroke="#4D4D4D" stroke-width="3" stroke-linecap="round" stroke-linejoin="round"/>
<path d="M55.8968 205.11C56.5834 206.012 57.6972 206.748 58.2849 207.671C58.8242 208.518 58.8005 209.601 59.2401 210.504C60.3501 212.783 61.1505 208.977 61.1505 207.943C61.1505 207.053 60.2596 203.403 59.3462 205.982C59.1417 206.559 59.7085 204.934 59.7177 204.51C59.7511 202.966 59.7126 201.416 59.2401 199.934C58.4891 197.578 56.6473 194.82 54.9416 193.068C54.5138 192.629 55.7846 194.074 56.3744 194.213C57.6957 194.523 58.2623 193.59 58.2849 192.36C58.3007 191.5 56.4131 184.456 54.5701 186.585C54.4828 186.685 57.8072 188.124 57.8072 185.25C57.8072 184.057 55.6305 182.506 57.8072 183.996C59.9212 185.443 62.489 184.041 63.7242 182.089C65.3063 179.59 62.234 179.197 64.7591 181.79C67.0411 184.133 70.5219 182.631 72.3211 180.373C72.7829 179.794 74.5723 182.104 76.4338 181.763C77.4332 181.579 80.9575 178.919 81.6875 179.856C83.9257 182.728 88.7198 182.181 91.7172 182.062C92.8698 182.017 97.9069 178.481 96.0156 177.267C94.8348 176.51 94.5678 180.032 96.4933 178.521C99.1351 176.446 97.5746 173.699 95.538 172.146C93.4801 170.576 95.8106 171.735 95.4319 169.694C94.9451 167.07 91.8564 163.4 88.9577 165.226C85.1351 167.634 90.5497 170.11 90.5497 167.133C90.5497 163.177 83.3003 161.557 80.5731 163.047C77.8504 164.534 81.7839 164.727 80.3874 164.136C78.6067 163.383 76.514 163.08 74.603 162.965C73.8342 162.918 72.3341 163.248 71.6843 162.692C70.7011 161.851 68.332 161.125 67.094 160.731C62.8258 159.371 63.3369 163.235 64.9448 166.261C66.4849 169.16 59.9992 167.343 58.789 167.16C55.5456 166.671 53.6207 171.219 57.0378 171.219C58.3067 171.219 57.3302 170.682 56.7724 170.538C54.9809 170.079 53.3991 170.804 52.1025 172.091C49.1438 175.028 50.3483 181.45 55.3131 179.828C57.0183 179.271 54.9793 178.248 54.1456 178.248C51.594 178.248 48.4688 179.859 47.6183 182.444C46.0443 187.227 57.888 181.128 59.2401 179.992C60.1402 179.236 61.1044 178.454 59.983 177.54C59.1012 176.821 56.4159 175.142 57.5419 175.142C58.1761 175.142 60.7884 177.58 61.6281 177.921C63.0055 178.48 65.4162 179.171 66.6695 177.921C69.5882 175.01 63.8818 173.659 64.1222 174.325C65.9255 179.324 74.79 176.355 77.5483 174.325C78.6176 173.538 78.724 172.231 77.1768 173.072C75.4961 173.986 74.1155 176.16 74.8418 178.139C76.5583 182.816 87.0202 180.461 87.7902 176.014C88.0278 174.642 85.554 174.021 84.6593 174.543C82.3671 175.88 84.3611 178.436 86.1451 178.766C90.8108 179.628 98.9147 174.071 91.6907 170.893C90.1254 170.204 87.2093 169.826 86.0921 171.546C84.7244 173.653 88.8269 173.555 89.7803 173.372C98.0999 171.77 88.3208 167.061 85.8002 165.635C83.7749 164.489 78.6471 161.106 80.4404 166.261C80.6691 166.919 79.2721 164.925 79.0341 164.681C77.6474 163.257 75.6808 162.198 73.7805 161.793C71.534 161.315 68.7166 161.32 67.0144 163.156C65.8952 164.362 67.2473 164.772 68.3146 164.872C68.676 164.906 70.8542 164.983 69.88 164.136C68.4445 162.889 66.2811 162.898 64.5203 162.692C63.2298 162.542 60.3086 162.118 59.8503 164C59.3748 165.953 61.1755 169.111 62.6894 170.184C64.3136 171.336 62.93 170.297 61.9996 169.912C60.5314 169.304 58.1857 168.521 56.5867 168.931C54.6901 169.418 58.9116 171.107 59.1339 171.165C62.3484 172.007 66.1333 171.433 69.2167 170.293C69.9608 170.018 73.0876 168.518 72.0293 167.242C71.6194 166.748 70.2882 165.912 69.8535 166.861C68.7608 169.245 76.8874 168.125 77.7605 167.569C78.6514 167.001 74.2315 165.626 74.8418 168.822C75.5016 172.277 81.0586 172.347 83.0142 170.184C84.9881 168.002 81.1952 167.721 82.3774 169.694C83.7211 171.936 84.7734 169.384 81.3691 168.577C76.2833 167.372 73.0202 169.55 68.1554 170.239C64.8318 170.709 65.1148 172.175 63.0609 174.434C61.0465 176.65 59.0945 175.688 56.8786 176.968C54.7136 178.218 56.1309 183.817 55.8703 185.958C55.6201 188.013 51.6449 186.438 50.9616 189.445C50.5549 191.235 51.7616 193.131 53.0577 194.24C53.6556 194.751 55.704 195.097 56.0295 195.765C56.4687 196.667 54.043 195.628 53.0843 195.847C51.813 196.137 52.0639 197.99 52.3413 198.926C53.146 201.64 54.9519 203.702 55.4192 206.581" stroke="#4D4D4D" stroke-width="3" stroke-linecap="round" stroke-linejoin="round"/>
<path d="M56.3746 219.822C55.399 218.445 54.8771 217.668 54.9418 216.008C54.9839 214.926 55.5898 215.529 54.7295 214.646C54.0769 213.976 52.5816 213.88 52.0762 214.918" stroke="#4D4D4D" stroke-width="3" stroke-linecap="round" stroke-linejoin="round"/>
<path d="M69.7461 203.149C71.2724 201.143 73.0293 200.512 75.3712 199.825C76.6356 199.454 79.01 199.615 78.8206 199.226" stroke="#4D4D4D" stroke-width="3" stroke-linecap="round" stroke-linejoin="round"/>
<path d="M93.1484 198.245C95.0776 197.859 97.2715 197.176 98.8797 198.735C99.4507 199.289 102.435 200.697 100.79 200.697" stroke="#4D4D4D" stroke-width="3" stroke-linecap="round" stroke-linejoin="round"/>
<path d="M77.8672 209.523C77.8672 209.523 77.8673 209.523 77.8673 209.523" stroke="#4D4D4D" stroke-width="3" stroke-linecap="round" stroke-linejoin="round"/>
<path d="M96.4922 209.033C96.4922 209.033 96.4923 209.033 96.4923 209.033" stroke="#4D4D4D" stroke-width="3" stroke-linecap="round" stroke-linejoin="round"/>
<path d="M88.3733 205.601C88.3733 211.653 92.5911 217.447 94.1311 222.982C94.7867 225.337 93.9386 225.706 91.4777 225.706C89.0818 225.706 87.8579 225.519 86.4629 227.667" stroke="#4D4D4D" stroke-width="3" stroke-linecap="round" stroke-linejoin="round"/>
<path d="M164.045 148.776C160.906 146.507 158.959 146.813 156.096 149.464C153.422 151.941 152.56 156.534 154.964 159.485C158.693 164.063 167.123 162.68 169.889 157.876C171.231 155.545 170.821 157.36 171.705 158.075C173.905 159.855 175.037 159.987 177.247 157.892C179.904 155.373 182.063 145.216 175.51 146.556C174.782 146.706 172.443 148.325 173.544 148.1C175.001 147.802 174.97 146.008 174.609 144.877C173.644 141.861 169.425 140.39 166.768 141.511C164.783 142.348 164.279 144.785 162.682 145.707C161.139 146.598 155.02 151.816 159.759 151.251" stroke="#4D4D4D" stroke-width="2.5" stroke-linecap="round" stroke-linejoin="round"/>
<path d="M125.943 162.99C123.52 162.517 120.666 161.811 120.054 165.101C119.599 167.547 122.099 170.621 124.693 170.212C125.597 170.069 128.576 168.679 129.165 169.268C130.644 170.747 131.536 169.041 132.443 167.601C133.502 165.919 131.899 160.508 129.693 160.018C128.291 159.706 122.764 163.65 123.443 163.99" stroke="#4D4D4D" stroke-width="2.5" stroke-linecap="round" stroke-linejoin="round"/>
<path d="M166.044 70.1659C168.786 66.6063 173.723 62.8818 178.552 63.1504C180.703 63.2701 181.755 68.1131 182.444 69.6648C184.886 75.1682 172.585 75.8852 175.05 81.4406C175.518 82.4951 176.921 82.8936 177.83 83.4729C179.759 84.7023 180.054 84.1226 180.054 82.1923C180.054 80.6982 176.815 76.8126 178.552 75.7893C183.266 73.0125 182.25 65.6559 176.301 65.6559C171.728 65.6559 165.043 66.4966 165.043 72.4208C165.043 75.3732 167.539 74.5043 168.768 72.9219C170.251 71.0116 171.306 68.6626 174.049 68.6626C175.975 68.6626 179.749 67.9179 180.054 70.667C180.105 71.1333 181.111 73.3461 180.943 73.5622C180.247 74.4581 179.551 75.8086 179.053 76.9307C178.218 78.8119 175.55 78.5635 175.55 80.9395C175.55 82.5264 175.636 82.8006 176.551 83.9461C176.854 84.3251 178.622 85.3373 178.052 84.1967" stroke="#CD4631" stroke-width="3" stroke-linecap="round" stroke-linejoin="round"/>
<path d="M181.557 91.2119C181.661 95.3803 183.699 92.8279 182.168 91.6017C181.155 90.7897 180.871 93.0124 182.057 93.6061C183.389 94.273 183.081 90.9101 182.668 91.3233C181.595 92.398 183.873 95.2997 181.557 94.7196" stroke="#CD4631" stroke-width="3" stroke-linecap="round" stroke-linejoin="round"/>
<path d="M155.195 26.2351C148.679 17.9076 137.317 20.4842 130.307 26.984C123.481 33.3132 119.286 49.1847 125.58 57.0666C127.331 59.2589 128.873 61.6945 130.937 63.5998C131.674 64.2796 129.046 64.3047 128.055 64.4518C124.989 64.9071 123.479 68.2222 124.316 71.0757C124.756 72.5726 125.984 73.6014 127.466 73.9366C128.488 74.1679 128.712 74.5291 127.537 74.6467C124.78 74.9226 122.819 75.0704 120.929 77.3827C118.14 80.7962 119.4 83.7441 122.705 85.9649C126.047 88.2098 125.429 89.1996 122.319 91.075C119.854 92.5611 118.929 95.5768 118.076 98.2873C116.6 102.976 114.498 110.042 118.65 113.803C123.849 118.511 131.631 118.694 138.097 117.492C140.246 117.092 142.803 116.91 144.482 115.342C144.935 114.918 146.165 113.401 144.875 113.125C142.574 112.634 141.74 116.759 141.62 118.189C140.771 128.327 155.907 131.788 163.208 130.526C167.951 129.707 172.1 127.416 175.825 124.448C178.757 122.113 182.882 119.522 184.824 116.197C185.762 114.592 185.419 116.464 185.969 117.926C187.284 121.425 191.079 120.755 193.94 119.895C197.806 118.733 201.27 116.247 203.605 112.934C203.947 112.448 205.676 109.238 205.966 109.675C209.514 115.024 211.638 107.498 214.673 105.679C215.181 105.374 216.131 108.833 216.424 109.397C218.64 113.659 220.951 117.489 225.949 118.741C236.648 121.42 247.852 116.884 255.253 109.174C258.37 105.927 260.091 101.438 256.144 97.8403C255.19 96.97 258.2 97.9778 258.763 97.9368C261.856 97.7116 266.336 97.3224 268.589 94.9044C271.156 92.1485 272.539 89.7047 271.523 85.8508C270.813 83.1553 269.254 81.554 266.698 80.545C265.573 80.1011 263.309 80.0186 264.956 78.9776C266.608 77.9329 267.375 75.2992 267.525 73.4441C267.76 70.5161 265.75 68.5218 263.15 67.5297C261.978 67.0823 258.374 67.5466 258.977 67.4863C260.983 67.2855 262.086 59.42 261.937 57.9179C261.271 51.2416 254.586 46.0396 247.804 46.4742C246.68 46.5462 245.529 47.2142 246.381 46.0531C247.358 44.7201 247.408 42.33 247.8 40.7883C250.007 32.1051 246.441 24.7694 239.665 19.2159C234.088 14.6451 225.499 12.1312 218.787 15.2861C218.354 15.4899 215.536 18.7619 216.388 18.6767C217.688 18.5466 217.272 15.4251 217.096 14.7382C216.268 11.5194 212.481 8.85124 209.718 7.43384C205.647 5.34549 199.757 6.06548 195.479 7.24519C191.709 8.28483 188.868 10.7441 186.923 14.0438C185.892 15.7923 186.766 17.2533 185.489 16.0827C183.419 14.1845 182.659 12.9408 179.422 13.2064C175.608 13.5193 172.129 14.5183 169.1 16.9033C167.549 18.1245 166.161 20.775 166.364 22.8121C166.367 22.8433 165.937 20.8825 165.635 20.1188C164.004 16.0043 158.55 16.1441 155.655 19.0428C154.435 20.2639 153.738 22.1218 153.6 23.8333C153.528 24.7285 153.027 27.5775 152.78 25.0937" stroke="#4D4D4D" stroke-width="2.5" stroke-linecap="round" stroke-linejoin="round"/>
<path d="M194.478 41.1044C193.743 36.9005 198.382 36.4359 201.705 35.5923C204.343 34.9226 206.855 34.3656 209.378 35.815C211.019 36.758 213.327 39.1748 213.464 41.1044C213.976 48.2841 207.693 52.6297 200.788 52.6297C197.896 52.6297 198.005 57.836 197.98 59.6451C197.94 62.5676 197.253 65.3932 197.591 68.3309C197.684 69.1391 198.163 73.5975 199.481 72.0891C201.664 69.5907 201.983 64.2769 201.983 61.1484C201.983 58.1695 201.152 55.5711 204.235 54.3836C206.962 53.333 210.278 52.1262 212.102 49.6231C214.724 46.0255 215.237 41.0195 212.463 37.374C210.12 34.2933 203.563 34.1554 199.982 34.089C195.287 34.0019 193.131 36.7061 190.752 40.6033C189.329 42.936 190.047 46.8627 193.477 46.004C197.142 45.0865 199.691 42.954 202.261 40.3806C203.636 39.0037 207.453 39.9459 208.989 40.7146C210.816 41.6297 209.726 44.7887 209.211 46.1154C207.15 51.4235 200.296 51.2466 198.592 56.0261C197.304 59.6367 197.48 63.3585 197.48 67.1338C197.48 68.2998 196.722 72.0643 198.981 71.0591C203.288 69.1423 201.269 60.9919 201.483 57.1396C201.605 54.9322 204.52 54.6168 205.986 53.8825C207.76 52.9941 210.218 50.3903 211.101 48.6209C212.3 46.2197 212.519 42.5587 210.74 40.3806C208.522 37.6657 204.753 39.3285 202.484 37.5967C200.512 36.0924 196.369 41.2146 194.978 42.6077C194.431 43.1554 193.82 43.6359 193.227 44.111C192.957 44.3267 192.172 45.8927 191.976 45.8927C191.358 45.8927 192.702 44.8669 193.199 44.5007C194.875 43.2663 196.449 41.8574 197.674 40.1579C199.039 38.2654 201.251 39.1 203.484 39.1C204.767 39.1 207.666 38.5428 208.738 39.3784C210.364 40.6446 210.956 41.7838 208.488 42.6077" stroke="#CD4631" stroke-width="3" stroke-linecap="round" stroke-linejoin="round"/>
<path d="M199.981 80.1904C192.684 81.8346 203.228 84.8249 201.871 80.5801C201.411 79.1396 199.353 79.659 200.009 81.1926C200.298 81.868 202.929 83.012 200.481 82.1948" stroke="#CD4631" stroke-width="3" stroke-linecap="round" stroke-linejoin="round"/>
<path d="M230.135 96.0492C233.569 96.0492 238.022 95.2477 241.36 96.2226C243.31 96.7921 244.342 98.0309 245.742 99.3451C247.4 100.901 249.383 102.977 249.137 105.434C248.838 108.43 244.978 109.904 242.572 110.707C239.139 111.853 234.573 111.643 231.001 111.106C228.186 110.683 223.204 109.795 222.098 106.596C221.199 103.996 223.138 102.606 225.354 101.982C228.782 101.016 232.37 100.259 235.886 99.7267C237.59 99.4688 241.461 98.3286 243.161 99.4838C243.874 99.9681 244.591 102.083 244.755 102.901C245.017 104.216 244.319 104.946 243.213 105.555C240.789 106.891 237.837 107.509 235.176 106.509C231.647 105.184 236.141 102.135 238.103 101.999C240.416 101.839 241.301 102.763 242.122 104.931C242.702 106.463 242.685 107.424 240.754 107.585C238.455 107.777 236.062 107.578 233.877 106.839C230.475 105.689 226.059 103.678 223.726 100.802C222.639 99.4625 222.652 97.6703 222.652 96.0492C222.652 93.3606 222.675 93.5785 225.736 93.5512C231.028 93.5041 236.308 93.239 241.602 93.239C243.26 93.239 244.797 93.0699 246.279 93.9329C247.3 94.527 247.339 94.7816 247.284 95.9451C247.085 100.133 242.446 101.203 239.177 102.294" stroke="#4D4D4D" stroke-width="1.5" stroke-linecap="round"/>
<path d="M137.534 57.6441C137.048 55.1505 135.486 52.8626 134.554 50.4625C133.744 48.3746 133.48 45.6645 133.48 43.4197C133.48 39.1273 134.083 34.4909 137.915 31.728C140.85 29.6116 146.244 28.5859 149.139 31.4852C151.954 34.3042 151.527 38.7436 152.344 42.3442C153.194 46.0921 151.314 51.9229 147.199 53.0819C145.859 53.4595 142.429 54.3093 141.431 52.9258C139.984 50.9192 139.506 47.9068 138.85 45.5707C138.146 43.0616 135.658 37.0533 139.699 35.8392C144.718 34.3312 146.816 42.632 147.13 46.0218C147.314 48.0094 147.467 49.7623 146.125 51.3299C145.566 51.9832 143.126 53.7971 142.367 52.6135C141.312 50.9711 140.543 43.0895 142.834 42.9687C143.374 42.9403 144.938 42.7338 145.259 43.281C145.838 44.267 145.134 45.8273 144.22 46.2299C142.424 47.0214 141.899 46.9074 141.899 44.9983C141.899 43.2596 142.651 41.9435 144.636 42.7953C145.613 43.2148 145.726 45.1351 145.883 45.9871C146.378 48.6723 146.264 51.4227 146.264 54.1401C146.264 58.3363 143.129 60.637 140.34 63.5767" stroke="#4D4D4D" stroke-width="1.5" stroke-linecap="round"/>
<path d="M139.402 109.789C135.714 109.789 132.474 110.091 129.425 107.846C127.34 106.311 126.619 104.848 126.619 102.225C126.619 100.363 126.83 98.8652 128.178 97.4377C129.431 96.1112 130.573 96.0754 132.335 95.6683C132.985 95.5181 137.583 94.2522 138.086 95.4254C138.82 97.1412 137.845 100.069 136.908 101.531C135.869 103.154 134.951 104.75 133.166 105.66C132.77 105.862 129.79 107.003 129.737 106.042C129.637 104.241 129.896 102.898 130.984 101.427C131.638 100.543 134.107 100.998 135.037 101.046C138.409 101.219 136.904 109.614 133.236 105.799C132.448 104.98 132.323 103.344 132.889 102.399C134.952 98.9565 138.618 97.4685 142.208 96.3622" stroke="#4D4D4D" stroke-width="1.5" stroke-linecap="round"/>
<path d="M250.714 65.4495C252.365 64.4411 253.831 63.1688 253.831 61.0781C253.831 59.7408 254.164 58.4126 253.035 57.4873C252.205 56.8078 245.841 54.2716 245.725 56.7067C245.645 58.3987 245.725 60.1127 245.725 61.8067C245.725 63.6498 247.682 63.2864 249.085 63.2638C251.69 63.2217 252.01 61.2684 251.008 58.9271C250.469 57.6674 248.646 56.7814 247.942 58.7189C247.575 59.73 252.62 58.8924 249.155 58.8924" stroke="#4D4D4D" stroke-width="1.5" stroke-linecap="round"/>
<path d="M260.353 89.2705C261.041 89.2705 262.976 89.0342 263.208 90.0775C263.413 91.001 263.079 91.5409 262.412 92.0602C260.95 93.199 257.108 92.6454 257.965 90.1473C258.575 88.3699 260.375 87.189 262.243 87.1184C262.693 87.1014 263.25 86.9617 263.486 87.3874C263.715 87.7997 263.595 88.6153 263.397 89.0114C262.828 90.1509 261.763 91.1292 260.571 91.2831C258.904 91.4986 254.98 92.2677 254.98 89.8085" stroke="#4D4D4D" stroke-width="1.5" stroke-linecap="round"/>
</svg>
