<svg width="275" height="275" viewBox="0 0 275 275" fill="none" xmlns="http://www.w3.org/2000/svg">
<path d="M171.398 145.861C170.898 142.261 170.67 138.9 169.934 135.389C168.89 130.415 165.333 125.944 162.87 121.556C158.052 112.973 152.998 103.274 143.859 98.7374C135.21 94.4437 128.008 96.1303 119.38 99.1899C114.087 101.067 110.496 111.472 108.964 116.255C106.454 124.088 104.966 130.614 106.359 138.912C107.424 145.253 109.611 154.805 113.977 159.823C116.026 162.179 117.179 164.108 119.803 165.9C121.556 167.096 123.562 168.258 125.109 169.714C127.991 172.424 132.392 172.872 135.363 175.822C137.978 178.418 141.756 179.367 142.655 183.385C143.226 185.938 144.543 191.051 147.961 191.239C156.438 191.707 166.991 188.388 173.71 183.385C176.659 181.189 176.999 176.348 174.621 173.463C171.802 170.042 171.723 162.973 171.398 158.789C171.119 155.178 169.206 151.246 170.943 147.606C173.71 141.805 174.372 135.079 173.449 128.666C172.12 119.43 173.402 111.372 167.004 103.682C164.551 100.734 161.562 97.9565 158.833 95.2468C155.42 91.8576 152.102 88.3513 146.919 88.2655C139.082 88.1358 129.518 88.167 123.482 93.954C120.892 96.4365 117.233 99.3853 116.027 102.842C113.849 109.091 114.733 115.114 115.441 121.588C116.793 133.932 116.699 149.081 126.281 158.595C128.954 161.249 130.404 157.134 130.839 155.169C131.553 151.937 130.297 148.408 129.927 145.214C129.417 140.807 128.249 136.704 126.867 132.48C126.113 130.172 122.67 114.726 117.818 118.259C112.062 122.45 113.385 138.095 114.953 143.469C116.611 149.151 121.027 159.988 128.983 157.949C136.432 156.04 138.777 147.215 134.419 141.498C132.369 138.807 124.952 132.202 124.068 139.332C123.17 146.574 128.984 155.387 134.159 159.791C137.462 162.602 144.385 164.951 146.073 158.918C147.066 155.369 140.552 149.965 137.284 150.644C129.599 152.241 138.466 167.226 140.279 170.134C142.427 173.58 155.072 181.032 152.518 172.041C151.828 169.61 145.736 162.671 142.72 164.542C137.363 167.867 148.818 179.714 151.672 180.961C155.941 182.826 155.696 178.339 153.82 175.984C152.186 173.931 148.62 171.296 150.044 176.145C151.022 179.475 154.161 187.358 158.833 186.456C163.774 185.502 161.036 173.726 160.005 171.071C159.143 168.849 157.355 164.293 154.992 163.12C152.9 162.081 154.563 167.202 154.764 167.71C156.037 170.916 159.307 178.763 163.651 178.763C168.943 178.763 164.213 166.567 163.521 164.898C162.771 163.089 162.016 159.923 160.005 159.015C158.345 158.266 159.81 164.28 160.005 164.898C160.502 166.467 163.924 180.661 167.883 178.893C172.707 176.737 169.593 166.985 168.729 163.476C167.845 159.885 166.655 156.399 165.669 152.842C165.116 150.846 164.914 151.447 165.409 153.165C165.663 154.049 166.697 155.952 167.883 155.363C169.992 154.316 169.733 149.769 169.934 147.897C170.712 140.634 170.038 132.901 169.51 125.628C169.158 120.766 168.713 117.007 166.158 112.991C162.357 107.016 161.666 101.256 155.122 97.1214C150.254 94.045 144.543 90.0512 138.879 93.2429C131.552 97.372 126.072 106.49 122.896 113.993C121.644 116.949 120.365 126.478 126.119 121.847C130.012 118.713 132.49 114.71 134.517 110.211C136.608 105.571 139.342 100.586 138.814 95.3437C137.775 85.0334 126.879 101.936 125.826 104.232C123.817 108.608 116.331 126.228 123.938 128.925C126.709 129.908 129.697 126.833 131.359 124.982C135.515 120.353 138.884 114.284 139.628 108.046C140.053 104.472 139.421 99.4232 135.786 97.5092C131.031 95.0051 125.746 104.183 124.133 107.205C120.828 113.398 118.719 120.103 118.176 127.115C117.863 131.151 117.336 137.471 121.594 139.849C124.973 141.737 129.337 136.769 131.164 134.613C135.771 129.178 138.681 123.007 141.125 116.384C142.949 111.443 143.815 105.588 142.395 100.418C141.165 95.9402 136.424 102.527 135.624 103.779C130.622 111.601 128.437 121.424 126.997 130.476C126.233 135.286 124.737 143.049 128.072 147.251C135.647 156.797 145.964 130.877 146.984 127.244C148.72 121.063 149.643 114.19 148.807 107.787C148.003 101.625 144.101 109.947 143.339 111.957C140.808 118.623 139.96 126.201 139.432 133.256C139.06 138.236 138.103 145.269 140.018 150.127C141.783 154.605 145.479 152.24 147.375 149.416C151.472 143.314 152.563 135.875 153.234 128.731C153.802 122.688 153.776 116.267 152.909 110.244C151.906 103.271 149.379 117.65 149.198 118.776C147.751 127.797 146.826 137.049 146.789 146.184C146.77 150.986 145.136 164.206 150.565 167.257C153.611 168.969 156.306 164.746 157.564 162.571C161.635 155.529 161.643 145.907 161.079 138.072C160.68 132.517 159.987 126.993 159.126 121.491C158.748 119.074 158.534 116.235 157.336 114.025C155.681 110.974 155.077 125.156 155.09 125.951C155.132 128.642 157.523 163.529 161.893 161.439C164.202 160.336 164.441 153.885 164.628 151.905C165.506 142.566 163.99 132.773 162.316 123.592C162.192 122.91 160.413 115.938 160.396 115.997C158.93 121.01 159.68 127.352 159.68 132.48C159.68 138.384 159.378 144.416 160.852 150.192C161.449 152.533 162.743 155.274 163.911 151.614C167.556 140.202 164.25 126.107 161.145 114.801C160.323 111.81 160.198 113.975 160.396 115.673C160.915 120.141 161.551 125.114 163.195 129.313C163.471 130.016 165.476 134.449 166.939 132.674C168.351 130.96 166.836 126.043 166.353 124.271C164.64 117.992 161.396 112.174 157.954 106.688C156.098 103.729 153.958 100.174 150.337 99.1253C141.118 96.4553 142.103 124.008 142.232 127.697C142.445 133.789 143.189 139.796 144.999 145.635C145.274 146.524 147.04 152.108 148.514 149.545C150.677 145.788 147.041 138.546 145.357 135.26C143.82 132.262 138.414 121.671 134.224 121.814C129.764 121.967 129.806 130.531 129.927 133.256C130.27 140.981 132.026 148.607 135.526 155.557C137.221 158.923 140.196 162.635 144.087 163.508C145.69 163.867 149.265 163.414 148.71 160.987C148.155 158.562 144.909 157.221 143.078 156.01C139.433 153.597 135.994 151.002 132.076 149.028C125.396 145.664 131.816 156.912 133.085 159.339C135.138 163.264 137.925 168.228 142.329 169.94C144.191 170.663 144.705 169.365 143.176 168.227C140.203 166.013 137.257 163.769 134.224 161.633C133.018 160.784 128.684 156.219 126.997 156.591C126.904 156.612 134.564 166.575 135.949 167.645C140.678 171.297 126.345 160.527 121.398 157.173C117.544 154.56 119.691 155.898 121.919 158.078C123.995 160.109 125.897 162.274 127.909 164.348C129.576 166.067 131.839 165.144 134.224 165.997C137.607 167.206 141.122 171.224 145.031 168.421C148.805 165.714 148.464 164.849 150.305 169.81C152.517 175.773 153.61 182.088 154.992 188.266C155.464 190.372 156.158 187.833 156.49 186.973C157.373 184.683 158.46 182.074 158.508 179.604C158.594 175.142 154.943 173.84 152.095 177.567C151.251 178.672 147.723 186.227 152.063 184.258C154.238 183.27 155.071 181.859 155.578 179.539C157.118 172.489 157.098 164.773 156.49 157.626C156.329 155.739 156.102 146.548 153.202 145.829C149.821 144.989 148.171 158.323 147.961 160.276C147.39 165.595 146.349 170.988 147.375 176.307C148.297 181.089 150.541 179.452 151.932 175.725C154.138 169.818 154.311 162.828 154.048 156.624C153.866 152.317 153.347 148.149 152.355 143.954C152.035 142.597 151.724 139.328 150.272 138.427C147.801 136.894 147.432 147.221 147.375 148.156C147.195 151.097 146.291 159.879 146.822 156.979C148.889 145.687 145.13 132.025 139.042 122.461C131.539 110.675 123.417 130.651 123.417 137.328C123.417 138.487 123.547 142.566 125.695 141.53C129.497 139.697 128.987 132.66 128.951 129.377C128.914 126.048 128.292 116.287 124.523 114.381C119.974 112.079 119.877 128.294 119.836 129.571" stroke="#FFD700" stroke-width="7.02381" stroke-linecap="round" stroke-linejoin="round"/>
<path d="M150.891 200.547C153.987 199.947 157.215 199.152 160.298 198.77C163.046 198.429 166.823 195.204 169.283 193.889C171.542 192.681 174.369 192.419 176.542 190.98C177.396 190.415 180.326 186.438 180.188 188.912C180.102 190.437 177.899 193.053 177.225 194.503C176.021 197.093 173.288 199.621 171.073 201.42C168.672 203.37 166.305 204.983 163.521 206.365C160.872 207.68 157.51 208.432 155.253 210.437C153.652 211.859 156.344 211.913 157.661 212.15C160.157 212.601 162.696 212.123 164.725 210.728C167.139 209.069 170.498 207.417 173.286 206.494C175.774 205.671 177.377 204.108 179.602 203.004C180.472 202.572 183.626 201.888 181.652 203.456C180.707 204.207 180.709 206.234 180.188 207.27C179.529 208.578 178.012 209.826 176.9 210.761C174.468 212.804 171.825 215.16 169.055 216.708C167.872 217.368 172.984 217.887 173.156 218" stroke="#4D4D4D" stroke-width="7.02381" stroke-linecap="round" stroke-linejoin="round"/>
<path d="M147.375 186.002C147.375 180.035 147.961 174.239 147.961 168.291C147.961 160.938 145.672 153.683 143.729 146.636C141.713 139.322 139.175 132.03 134.484 125.951C131.699 122.339 128.782 116.19 123.482 116.19C120.342 116.19 119.836 119.019 119.836 121.426C119.836 125.986 122.389 129.945 126.151 132.479C130.301 135.275 135.614 135.928 140.214 137.715C144.04 139.202 147.932 140.982 150.76 137.133C156.331 129.554 157.689 120.523 157.336 111.406C157.301 110.508 155.918 107.449 154.862 108.497C152.813 110.532 151.539 114.304 151.477 117.159C151.197 129.924 152.918 143.793 158.052 155.556C159.202 158.191 160.367 160.826 161.763 163.346C162.843 165.296 163.197 167.602 164.497 169.389C165.236 170.404 170.764 176.824 168.469 173.785" stroke="#4D4D4D" stroke-width="7.02381" stroke-linecap="round" stroke-linejoin="round"/>
<path d="M98.7422 194.729C102.083 191.412 104.874 187.792 107.661 183.998C109.457 181.555 108.817 182.268 108.117 180.185" stroke="#FFD700" stroke-width="7.02381" stroke-linecap="round" stroke-linejoin="round"/>
<path d="M71.7891 147.024C74.9507 145.935 79.14 144.404 81.8802 142.499C82.2842 142.218 81.2789 144.925 80.5781 143.533" stroke="#FFD700" stroke-width="7.02381" stroke-linecap="round" stroke-linejoin="round"/>
<path d="M63 92.3369C67.0319 95.0329 70.9837 97.5729 76.0208 97.5729C77.1398 97.5729 80.8063 97.4443 79.9922 95.8275" stroke="#FFD700" stroke-width="7.02381" stroke-linecap="round" stroke-linejoin="round"/>
<path d="M107.531 60.9219C108.383 64.867 109.888 67.8221 112.186 71.1029C112.58 71.6644 115.407 74.6874 113.977 72.5573" stroke="#FFD700" stroke-width="7.02381" stroke-linecap="round" stroke-linejoin="round"/>
<path d="M160.266 67.3211C162.834 65.604 165.728 63.755 167.883 61.5034C168.504 60.8538 170.812 57.7776 170.812 58.0128" stroke="#FFD700" stroke-width="7.02381" stroke-linecap="round" stroke-linejoin="round"/>
<path d="M195.422 95.8275C201.293 93.924 213 90.0098 213 90.0098" stroke="#FFD700" stroke-width="7.02381" stroke-linecap="round" stroke-linejoin="round"/>
<path d="M196.008 143.533C199.511 146.909 202.85 146.435 207.141 148.058C209.035 148.775 209.75 148.124 207.141 147.606" stroke="#FFD700" stroke-width="7.02381" stroke-linecap="round" stroke-linejoin="round"/>
</svg>
